<?xml version="1.0" encoding="utf-8"?>
<!-- Generator: Adobe Illustrator 23.0.3, SVG Export Plug-In . SVG Version: 6.00 Build 0)  -->
<svg version="1.1" id="Layer_1" xmlns="http://www.w3.org/2000/svg" xmlns:xlink="http://www.w3.org/1999/xlink" x="0px" y="0px"
	 viewBox="0 0 768.8 238.2" style="enable-background:new 0 0 768.8 238.2;" xml:space="preserve">
<style type="text/css">
	.st0{fill:#00BED1;}
</style>
<path class="st0" d="M303.5,98.4h-31.2l-37.5,40.3V42.5h-24.3v0.2C188.6,16.6,155.8,0,119.1,0C53.3,0,0,53.3,0,119.1
	c0,65.8,53.3,119.1,119.1,119.1c36.7,0,69.6-16.6,91.4-42.8v0.3h24.3V146h0.4l38.7,49.6h32.2l-44.4-53.1L303.5,98.4z M175,143
	c0,8.6-1.5,16.4-4.5,23.4c-3,7-7,12.9-12.2,17.7c-5.1,4.9-11.2,8.6-18.2,11.2c-7,2.6-14.7,4-22.9,4c-8.2,0-15.9-1.3-22.9-4
	c-7-2.6-13.1-6.4-18.3-11.2c-5.2-4.9-9.3-10.8-12.2-17.7c-2.9-7-4.4-14.8-4.4-23.4V52.2H85v89.9c0,3.5,0.5,7.2,1.6,11
	c1.1,3.8,2.9,7.4,5.4,10.6c2.5,3.2,5.8,5.9,9.9,8c4.1,2.1,9.2,3.1,15.3,3.1c6.1,0,11.2-1,15.3-3.1c4.1-2.1,7.4-4.8,9.9-8
	c2.5-3.2,4.3-6.8,5.4-10.6c1.1-3.8,1.6-7.5,1.6-11V52.2H175V143z M404.7,110c-4.7-4.5-10.3-7.9-16.8-10.3
	c-6.5-2.4-13.4-3.6-20.7-3.6c-7.3,0-14.2,1.2-20.7,3.6c-6.5,2.4-12.1,5.9-16.8,10.3c-4.7,4.5-8.5,9.8-11.2,16.1
	c-2.8,6.3-4.2,13.3-4.2,21c0,7.7,1.4,14.7,4.2,21c2.8,6.3,6.5,11.6,11.2,16.1c4.7,4.5,10.3,7.9,16.8,10.3c6.5,2.4,13.4,3.6,20.7,3.6
	c7.3,0,14.2-1.2,20.7-3.6c6.5-2.4,12.1-5.9,16.8-10.3c4.7-4.5,8.5-9.8,11.2-16.1c2.8-6.3,4.2-13.3,4.2-21c0-7.7-1.4-14.7-4.2-21
	C413.2,119.8,409.5,114.4,404.7,110z M393.9,158c-1.3,3.5-3.2,6.6-5.7,9.3c-2.5,2.7-5.5,4.9-9,6.5c-3.5,1.6-7.5,2.4-12,2.4
	s-8.4-0.8-12-2.4c-3.5-1.6-6.5-3.8-9-6.5c-2.5-2.7-4.4-5.8-5.7-9.3c-1.3-3.5-1.9-7.2-1.9-10.9c0-3.8,0.6-7.4,1.9-10.9
	c1.3-3.5,3.2-6.6,5.7-9.3c2.5-2.7,5.5-4.9,9-6.5c3.5-1.6,7.5-2.4,12-2.4s8.4,0.8,12,2.4c3.5,1.6,6.5,3.8,9,6.5
	c2.5,2.7,4.4,5.8,5.7,9.3c1.3,3.5,1.9,7.2,1.9,10.9C395.8,150.8,395.2,154.5,393.9,158z M590.7,121.4c1.2,5.1,1.8,10.5,1.8,16.3
	v57.9h-24.3v-55.1c0-3-0.3-5.8-0.8-8.6c-0.5-2.8-1.5-5.2-2.8-7.3c-1.4-2.1-3.2-3.7-5.5-5c-2.3-1.2-5.3-1.8-8.9-1.8
	c-3.8,0-7,0.7-9.6,2.1c-2.6,1.4-4.8,3.3-6.5,5.7c-1.7,2.4-2.9,5.1-3.6,8.1c-0.7,3-1.1,6.1-1.1,9.2v52.7H505v-57.9
	c0-6.1-1.3-10.9-3.8-14.5c-2.6-3.6-6.8-5.4-12.8-5.4c-4.1,0-7.5,0.7-10.2,2c-2.8,1.4-5.1,3.2-6.9,5.5c-1.8,2.3-3.1,4.9-4,7.9
	c-0.8,3-1.2,6.1-1.2,9.3v53.1h-24.3V98.4h23.1v15.2h0.4c2.2-4.6,5.6-8.7,10.4-12.3c4.8-3.6,11.2-5.4,19.3-5.4c15.3,0,25.4,6,30.4,18
	c3.5-6.2,7.9-10.8,13.2-13.7c5.3-2.9,11.5-4.4,18.8-4.4c6.5,0,12,1.1,16.4,3.2c4.5,2.2,8.1,5.1,10.8,8.9
	C587.5,111.9,589.5,116.4,590.7,121.4z M686.3,151.9c2.6,3.6,3.8,8.6,3.8,15c0,5.8-1.3,10.7-3.7,14.7c-2.5,4-5.7,7.2-9.7,9.6
	c-4,2.4-8.5,4.2-13.5,5.3c-5,1.1-10,1.6-15,1.6c-7.6,0-14.5-1.1-20.9-3.2c-6.3-2.2-12-6.1-17-11.7l16.2-15.2c3.1,3.5,6.4,6.4,10,8.6
	c3.6,2.2,7.9,3.3,13.1,3.3c1.8,0,3.6-0.2,5.5-0.6c1.9-0.4,3.6-1.1,5.3-2c1.6-0.9,2.9-2.1,3.9-3.5c1-1.4,1.5-3.1,1.5-5
	c0-3.4-1.3-5.9-3.8-7.5c-2.6-1.6-5.8-2.9-9.7-3.9c-3.9-1-8.1-2-12.7-2.8c-4.5-0.9-8.7-2.3-12.7-4.3c-3.9-2-7.2-4.7-9.7-8.2
	c-2.6-3.5-3.8-8.4-3.8-14.6c0-5.4,1.1-10.1,3.3-14.1c2.2-4,5.2-7.3,8.8-9.8c3.6-2.6,7.8-4.5,12.6-5.7c4.7-1.2,9.5-1.8,14.4-1.8
	c6.5,0,12.9,1.1,19.2,3.3c6.3,2.2,11.5,6,15.4,11.4l-16.2,14.6c-4.7-6.6-11.1-9.9-19-9.9c-3.2,0-6.4,0.8-9.5,2.4
	c-3.1,1.6-4.7,4.3-4.7,7.9c0,3,1.3,5.1,3.8,6.5c2.6,1.4,5.8,2.5,9.7,3.4c3.9,0.9,8.1,1.9,12.7,2.9c4.5,1,8.7,2.6,12.7,4.7
	C680.5,145.4,683.8,148.3,686.3,151.9z M742,119.1v42.5c0,4.9,0.9,8.7,2.7,11.5c1.8,2.8,5.4,4.3,10.8,4.3c2.2,0,4.5-0.2,7.1-0.7
	c2.6-0.5,4.6-1.2,6.1-2.3v20.5c-2.6,1.2-5.7,2.1-9.4,2.5c-3.7,0.5-7,0.7-9.8,0.7c-6.5,0-11.8-0.7-15.9-2.1c-4.1-1.4-7.4-3.6-9.7-6.5
	c-2.4-2.9-4-6.5-4.9-10.8c-0.9-4.3-1.3-9.3-1.3-15v-44.6h-20.1V98.4h20.1V70.3H742v28.2h26.7v20.7H742z"/>
</svg>
